<svg xmlns="http://www.w3.org/2000/svg" xmlns:xlink="http://www.w3.org/1999/xlink" width="500" zoomAndPan="magnify" viewBox="0 0 375 374.999991" height="500" preserveAspectRatio="xMidYMid meet" version="1.0"><defs><g/><clipPath id="2c85402949"><path d="M 0 87.890625 L 375 87.890625 L 375 287.390625 L 0 287.390625 Z M 0 87.890625 " clip-rule="nonzero"/></clipPath></defs><g clip-path="url(#2c85402949)"><path fill="#eab8b5" d="M 102.558594 227.082031 C 102.558594 227.257812 102.652344 227.429688 102.6875 227.605469 C 102.722656 227.78125 102.6875 227.769531 102.75 227.851562 Z M 120.171875 210.207031 C 119.382812 210.65625 118.585938 211.125 117.796875 211.527344 C 118.953125 212.097656 120.070312 212.769531 121.160156 213.4375 C 124.25 215.339844 127.15625 217.488281 130.128906 219.5625 C 130.785156 220.09375 131.15625 220.777344 131.238281 221.617188 C 131.277344 222.027344 131.238281 222.425781 131.121094 222.820312 C 131.003906 223.214844 130.820312 223.570312 130.5625 223.886719 C 130.304688 224.207031 129.996094 224.464844 129.636719 224.664062 C 129.277344 224.859375 128.894531 224.980469 128.484375 225.023438 C 127.628906 225.097656 126.859375 224.863281 126.183594 224.328125 C 124.746094 223.328125 123.324219 222.289062 121.886719 221.277344 C 120.8125 220.507812 119.710938 219.800781 118.613281 219.09375 C 117.511719 218.386719 116.394531 217.761719 115.230469 217.183594 C 114.132812 216.652344 113.003906 216.195312 111.847656 215.816406 L 110.808594 215.503906 C 110.433594 215.402344 110.058594 215.292969 109.691406 215.175781 C 109.285156 215.023438 108.910156 214.8125 108.574219 214.539062 C 108.152344 214.191406 107.84375 213.757812 107.648438 213.242188 C 107.457031 212.730469 107.40625 212.199219 107.492188 211.65625 C 107.757812 209.464844 109.996094 208.65625 111.699219 207.765625 L 114.121094 206.5 C 115.613281 205.671875 117.089844 204.828125 118.539062 203.917969 C 120.6875 202.609375 122.722656 201.140625 124.644531 199.511719 C 124.976562 199.179688 125.28125 198.828125 125.5625 198.457031 C 125.671875 198.253906 125.761719 198.050781 125.855469 197.839844 C 125.933594 197.453125 126 197.058594 126.046875 196.65625 C 126.046875 196.527344 126.046875 196.398438 126.046875 196.269531 L 126.046875 196.195312 L 125.972656 196.105469 C 125.703125 195.832031 125.417969 195.578125 125.113281 195.34375 C 124.847656 195.195312 124.570312 195.066406 124.289062 194.957031 C 123.199219 194.703125 122.101562 194.535156 120.988281 194.453125 C 119.75 194.457031 118.527344 194.589844 117.320312 194.847656 C 116.917969 194.949219 116.503906 195.050781 116.101562 195.179688 C 114.808594 195.570312 113.5625 196.070312 112.359375 196.683594 C 111.441406 197.199219 110.527344 197.75 109.609375 198.28125 C 109.160156 198.554688 108.679688 198.734375 108.160156 198.824219 C 108.003906 199.804688 107.867188 200.796875 107.765625 201.789062 C 107.628906 203.09375 107.4375 204.386719 107.371094 205.699219 C 107.308594 207.011719 107.226562 208.507812 107.160156 209.921875 C 107.160156 209.765625 107.160156 209.621094 107.160156 209.464844 C 107.160156 210.695312 107.0625 211.933594 107.097656 213.136719 C 107.152344 214.761719 107.234375 216.367188 107.371094 217.984375 C 107.640625 220.765625 108.078125 223.519531 108.691406 226.246094 L 108.582031 225.785156 C 108.664062 226.136719 108.757812 226.484375 108.839844 226.832031 C 108.996094 227.476562 109.195312 228.101562 109.371094 228.734375 C 109.65625 229.542969 109.628906 230.339844 109.296875 231.128906 C 108.945312 231.890625 108.382812 232.417969 107.601562 232.71875 C 106.792969 233.023438 105.996094 233 105.207031 232.644531 C 104.441406 232.304688 103.910156 231.738281 103.621094 230.945312 C 103.3125 229.800781 103 228.660156 102.707031 227.503906 C 102.035156 224.785156 101.5625 222.03125 101.292969 219.242188 C 101.164062 217.78125 101.054688 216.339844 101.011719 214.871094 C 100.964844 213.402344 101.011719 211.886719 101.011719 210.382812 C 101.011719 208.875 101.128906 207.167969 101.210938 205.570312 C 101.277344 204.25 101.421875 202.945312 101.558594 201.621094 C 101.699219 200.300781 101.835938 199.097656 102.054688 197.832031 C 102.394531 195.8125 102.742188 193.78125 103.101562 191.761719 C 103.171875 191.363281 103.316406 190.988281 103.53125 190.644531 C 103.75 190.296875 104.023438 190.007812 104.351562 189.769531 C 104.683594 189.53125 105.046875 189.367188 105.441406 189.269531 C 105.835938 189.175781 106.238281 189.160156 106.640625 189.21875 C 106.84375 189.246094 107.042969 189.300781 107.234375 189.375 C 107.679688 189.558594 108.0625 189.824219 108.382812 190.179688 C 108.703125 190.535156 108.933594 190.945312 109.070312 191.40625 C 109.664062 191.074219 110.261719 190.753906 110.902344 190.488281 C 112.085938 189.953125 113.308594 189.523438 114.570312 189.203125 C 115.820312 188.828125 117.089844 188.554688 118.382812 188.382812 C 119.988281 188.210938 121.59375 188.234375 123.195312 188.449219 C 124.429688 188.597656 125.628906 188.882812 126.800781 189.300781 C 127.273438 189.488281 127.730469 189.710938 128.164062 189.972656 C 128.9375 190.445312 129.628906 191.011719 130.246094 191.671875 C 130.992188 192.34375 131.53125 193.15625 131.859375 194.105469 C 132.050781 194.675781 132.179688 195.257812 132.246094 195.859375 C 132.277344 196.3125 132.277344 196.769531 132.246094 197.226562 C 132.191406 198.214844 131.996094 199.175781 131.660156 200.109375 C 131.007812 201.699219 130.023438 203.054688 128.714844 204.167969 C 126.925781 205.710938 125.035156 207.117188 123.039062 208.390625 C 122.042969 209.078125 121.097656 209.65625 120.144531 210.207031 Z M 126.121094 196.546875 L 126.203125 196.867188 L 126.121094 196.527344 Z M 126.121094 196.472656 Z M 160.316406 217.644531 L 160.125 217.699219 Z M 143.171875 201.035156 C 142.53125 204.210938 141.898438 207.378906 141.503906 210.59375 C 141.402344 211.445312 141.3125 212.308594 141.273438 213.171875 C 141.210938 214.140625 141.210938 215.105469 141.273438 216.074219 C 141.40625 217.421875 141.710938 218.726562 142.191406 219.992188 C 142.539062 220.953125 143.042969 221.820312 143.703125 222.597656 C 144.363281 223.375 145.136719 224.011719 146.023438 224.511719 C 147.679688 225.308594 149.421875 225.613281 151.25 225.429688 C 152.839844 225.316406 154.414062 225.109375 155.980469 224.8125 C 157.566406 224.546875 159.160156 224.207031 160.738281 223.894531 C 162.515625 223.511719 164.265625 223.023438 165.984375 222.425781 C 166.386719 222.296875 166.746094 222.089844 167.066406 221.808594 C 167.386719 221.53125 167.636719 221.199219 167.820312 220.816406 C 168 220.429688 168.101562 220.027344 168.117188 219.601562 C 168.132812 219.179688 168.066406 218.769531 167.914062 218.371094 C 167.761719 217.976562 167.535156 217.625 167.238281 217.320312 C 166.941406 217.015625 166.597656 216.785156 166.207031 216.621094 C 165.8125 216.460938 165.40625 216.382812 164.980469 216.390625 C 164.558594 216.398438 164.152344 216.488281 163.765625 216.660156 C 162.6875 217.042969 161.59375 217.367188 160.480469 217.632812 L 161.261719 217.449219 L 160.242188 217.691406 L 160.328125 217.691406 L 160.070312 217.753906 C 158.410156 218.121094 156.742188 218.460938 155.0625 218.746094 C 153.371094 219.074219 151.664062 219.269531 149.9375 219.332031 C 149.699219 219.332031 149.472656 219.269531 149.242188 219.222656 L 148.894531 219.066406 L 148.5625 218.792969 C 148.433594 218.617188 148.316406 218.441406 148.195312 218.257812 C 147.976562 217.777344 147.792969 217.28125 147.648438 216.769531 C 147.460938 215.808594 147.367188 214.839844 147.363281 213.859375 C 147.667969 210.230469 148.222656 206.640625 149.03125 203.09375 C 149.828125 199.199219 150.644531 195.316406 151.453125 191.421875 C 155.449219 191.285156 159.457031 191.15625 163.453125 191.101562 C 164.292969 191.023438 164.976562 190.65625 165.507812 190 C 166.050781 189.328125 166.28125 188.558594 166.195312 187.695312 C 166.101562 186.867188 165.734375 186.1875 165.09375 185.65625 C 164.855469 185.460938 164.59375 185.304688 164.304688 185.1875 C 163.816406 185.015625 163.3125 184.941406 162.792969 184.960938 C 157.6875 185.023438 152.570312 185.226562 147.472656 185.382812 C 146.914062 185.441406 146.410156 185.636719 145.957031 185.972656 C 145.507812 186.308594 145.171875 186.738281 144.957031 187.253906 C 144.738281 187.773438 144.667969 188.3125 144.742188 188.871094 C 144.820312 189.425781 145.035156 189.925781 145.382812 190.367188 L 145.382812 190.441406 C 144.648438 193.929688 143.886719 197.472656 143.171875 201.035156 Z M 163.808594 200.640625 C 163.351562 200.46875 162.878906 200.402344 162.390625 200.449219 C 160.554688 200.640625 158.804688 200.851562 157.007812 200.980469 C 155.210938 201.109375 153.46875 201.210938 151.691406 201.3125 C 151.28125 201.355469 150.898438 201.476562 150.539062 201.671875 C 150.179688 201.867188 149.871094 202.125 149.613281 202.445312 C 149.355469 202.765625 149.167969 203.121094 149.050781 203.515625 C 148.933594 203.90625 148.898438 204.308594 148.941406 204.71875 C 148.988281 205.121094 149.113281 205.503906 149.3125 205.863281 C 149.507812 206.21875 149.765625 206.527344 150.082031 206.785156 C 150.402344 207.039062 150.753906 207.226562 151.144531 207.347656 C 151.535156 207.464844 151.933594 207.507812 152.339844 207.472656 C 154.121094 207.371094 155.890625 207.277344 157.660156 207.140625 C 159.429688 207.003906 161.242188 206.792969 163.039062 206.609375 C 163.386719 206.574219 163.714844 206.480469 164.03125 206.332031 C 164.34375 206.1875 164.625 205.992188 164.875 205.746094 C 165.125 205.503906 165.324219 205.226562 165.480469 204.914062 C 165.636719 204.605469 165.734375 204.277344 165.777344 203.929688 C 165.824219 203.585938 165.808594 203.242188 165.738281 202.902344 C 165.664062 202.5625 165.539062 202.242188 165.359375 201.945312 C 165.179688 201.648438 164.957031 201.386719 164.691406 201.164062 C 164.421875 200.945312 164.125 200.773438 163.800781 200.648438 Z M 182.558594 200.492188 C 183.585938 198.804688 184.765625 197.226562 186.097656 195.765625 C 186.796875 195.21875 187.527344 194.722656 188.296875 194.277344 C 190.773438 193.058594 193.359375 192.085938 195.925781 191.066406 C 196.300781 190.914062 196.636719 190.695312 196.929688 190.414062 C 197.222656 190.128906 197.449219 189.804688 197.613281 189.429688 C 197.777344 189.058594 197.867188 188.667969 197.878906 188.261719 C 197.890625 187.855469 197.828125 187.460938 197.683594 187.082031 C 197.355469 186.230469 196.765625 185.648438 195.917969 185.328125 C 195.183594 185.03125 194.449219 185.03125 193.714844 185.328125 C 191.15625 186.335938 188.554688 187.273438 186.105469 188.523438 C 185.335938 188.90625 184.601562 189.339844 183.871094 189.789062 C 182.523438 190.628906 181.359375 191.671875 180.375 192.917969 C 179.402344 194.160156 178.503906 195.445312 177.671875 196.785156 C 175.796875 199.523438 174.652344 202.542969 174.242188 205.835938 C 174.140625 206.871094 174.238281 207.882812 174.535156 208.875 C 174.828125 209.773438 175.246094 210.605469 175.792969 211.375 C 176.316406 212.132812 176.898438 212.84375 177.535156 213.511719 C 178.167969 214.199219 178.808594 214.871094 179.488281 215.515625 C 180.734375 216.671875 182.121094 217.632812 183.640625 218.394531 C 184.558594 218.875 185.472656 219.230469 186.464844 219.617188 C 188.097656 220.226562 189.773438 220.691406 191.488281 221.011719 C 191.890625 221.078125 192.292969 221.066406 192.691406 220.972656 C 193.089844 220.878906 193.453125 220.714844 193.785156 220.472656 C 194.117188 220.234375 194.394531 219.941406 194.609375 219.59375 C 194.824219 219.246094 194.964844 218.871094 195.03125 218.464844 C 195.097656 218.0625 195.085938 217.660156 194.992188 217.261719 C 194.898438 216.863281 194.730469 216.496094 194.492188 216.164062 C 194.253906 215.832031 193.960938 215.554688 193.613281 215.339844 C 193.265625 215.125 192.890625 214.984375 192.488281 214.917969 C 191.761719 214.761719 191.039062 214.585938 190.324219 214.394531 C 188.5625 213.820312 186.875 213.085938 185.253906 212.191406 C 184.261719 211.46875 183.34375 210.660156 182.503906 209.765625 C 181.75 208.988281 181.078125 208.148438 180.488281 207.242188 L 180.429688 207.09375 C 180.398438 206.894531 180.375 206.691406 180.367188 206.488281 C 180.457031 205.765625 180.597656 205.050781 180.789062 204.351562 C 181.253906 203.007812 181.84375 201.722656 182.558594 200.492188 Z M 204.789062 210.832031 L 204.789062 211.035156 Z M 211.933594 196.804688 C 212.554688 194.5 213.207031 192.210938 213.859375 189.878906 C 213.964844 189.488281 213.992188 189.085938 213.941406 188.679688 C 213.890625 188.277344 213.761719 187.894531 213.5625 187.539062 C 213.363281 187.183594 213.101562 186.878906 212.78125 186.628906 C 212.460938 186.375 212.105469 186.191406 211.710938 186.078125 L 211.539062 186.078125 C 211.152344 185.996094 210.761719 185.984375 210.371094 186.050781 C 209.976562 186.113281 209.613281 186.25 209.273438 186.453125 C 208.929688 186.65625 208.640625 186.914062 208.398438 187.230469 C 208.15625 187.542969 207.980469 187.890625 207.871094 188.273438 C 207.332031 190.203125 206.78125 192.128906 206.25 194.066406 C 205.75 195.800781 205.359375 197.558594 205.074219 199.335938 C 204.765625 201.335938 204.558594 203.339844 204.453125 205.359375 C 204.390625 206.894531 204.460938 208.425781 204.652344 209.949219 C 204.652344 209.949219 204.652344 210.015625 204.652344 210.042969 C 204.65625 210.3125 204.695312 210.578125 204.761719 210.839844 C 204.761719 210.722656 204.761719 210.609375 204.761719 210.492188 C 204.761719 210.609375 204.761719 210.730469 204.761719 210.851562 C 204.761719 210.960938 204.761719 211.078125 204.761719 211.199219 L 204.761719 211.015625 L 204.902344 212.015625 C 204.890625 212.085938 204.890625 212.15625 204.902344 212.226562 C 205.230469 214.089844 205.667969 215.925781 206.210938 217.734375 C 206.320312 218.128906 206.5 218.488281 206.75 218.8125 C 207 219.136719 207.304688 219.398438 207.660156 219.601562 C 208.015625 219.804688 208.394531 219.933594 208.800781 219.984375 C 209.207031 220.035156 209.609375 220.007812 210.003906 219.898438 C 210.398438 219.789062 210.757812 219.609375 211.078125 219.359375 C 211.402344 219.105469 211.664062 218.804688 211.867188 218.445312 C 212.070312 218.089844 212.195312 217.710938 212.246094 217.304688 C 212.296875 216.898438 212.269531 216.496094 212.160156 216.101562 C 211.675781 214.375 211.246094 212.660156 210.90625 210.894531 C 210.90625 210.75 210.859375 210.601562 210.832031 210.464844 L 210.769531 209.976562 C 210.722656 209.59375 210.703125 209.207031 210.667969 208.828125 C 210.503906 206.492188 210.5625 204.160156 210.839844 201.835938 C 211.105469 200.136719 211.46875 198.457031 211.933594 196.804688 Z M 232.652344 210.96875 C 232.652344 213.621094 232.652344 216.265625 232.769531 218.917969 C 232.917969 220.582031 233.109375 222.214844 233.414062 223.859375 C 233.488281 224.261719 233.484375 224.660156 233.402344 225.058594 C 233.320312 225.460938 233.164062 225.828125 232.933594 226.167969 C 232.703125 226.503906 232.417969 226.785156 232.078125 227.007812 C 231.738281 227.230469 231.367188 227.382812 230.964844 227.457031 C 230.5625 227.535156 230.164062 227.53125 229.765625 227.449219 C 229.367188 227.363281 229 227.207031 228.660156 226.976562 C 228.324219 226.746094 228.042969 226.460938 227.820312 226.121094 C 227.597656 225.777344 227.445312 225.40625 227.371094 225.007812 C 227.058594 223.300781 226.859375 221.601562 226.710938 219.875 C 226.566406 218.148438 226.554688 216.433594 226.519531 214.714844 C 226.445312 211.824219 226.519531 208.941406 226.636719 206.058594 C 226.875 200.082031 227.492188 194.121094 228.058594 188.164062 C 228.097656 187.757812 228.207031 187.375 228.394531 187.011719 C 228.585938 186.652344 228.832031 186.339844 229.144531 186.074219 C 229.453125 185.8125 229.800781 185.617188 230.1875 185.492188 C 230.574219 185.363281 230.972656 185.316406 231.378906 185.34375 C 231.582031 185.363281 231.785156 185.398438 231.984375 185.457031 C 232.519531 185.617188 232.980469 185.90625 233.359375 186.320312 C 233.695312 186.097656 234.0625 185.953125 234.457031 185.886719 C 237.394531 185.3125 240.359375 184.976562 243.351562 184.878906 C 244.875 184.820312 246.359375 185.039062 247.804688 185.527344 C 248.714844 185.855469 249.570312 186.292969 250.375 186.832031 C 251.003906 187.226562 251.578125 187.6875 252.105469 188.210938 L 252.179688 188.292969 C 252.828125 189.066406 253.277344 189.941406 253.527344 190.917969 C 253.726562 191.515625 253.851562 192.128906 253.902344 192.753906 C 254.003906 194.21875 253.980469 195.683594 253.828125 197.144531 C 253.695312 198.839844 253.300781 200.476562 252.636719 202.046875 C 252.246094 202.972656 251.761719 203.847656 251.179688 204.671875 C 250.691406 205.320312 250.160156 205.933594 249.585938 206.507812 C 247.203125 208.773438 244.410156 210.269531 241.207031 210.996094 C 239.109375 211.488281 236.992188 211.601562 234.851562 211.34375 C 234.089844 211.253906 233.367188 211.125 232.652344 210.96875 Z M 233.890625 191.746094 C 233.484375 196.070312 233.101562 200.394531 232.863281 204.726562 L 233.878906 204.992188 C 235.117188 205.21875 236.363281 205.332031 237.621094 205.332031 C 238.660156 205.242188 239.683594 205.0625 240.691406 204.789062 C 241.648438 204.464844 242.5625 204.050781 243.441406 203.550781 C 244.234375 203.007812 244.972656 202.394531 245.652344 201.714844 C 246.042969 201.230469 246.394531 200.71875 246.707031 200.183594 C 247.035156 199.457031 247.300781 198.710938 247.496094 197.941406 C 247.726562 196.566406 247.839844 195.179688 247.84375 193.78125 C 247.800781 193.304688 247.722656 192.832031 247.605469 192.367188 C 247.210938 192.066406 246.800781 191.789062 246.375 191.535156 C 246.015625 191.375 245.644531 191.242188 245.265625 191.128906 C 244.355469 190.996094 243.4375 190.941406 242.515625 190.964844 C 240.160156 191.109375 237.824219 191.542969 235.484375 191.882812 C 234.941406 191.980469 234.410156 191.9375 233.890625 191.746094 Z M 262.308594 201.917969 C 261.691406 203.652344 261.214844 205.421875 260.878906 207.234375 C 260.625 208.941406 260.402344 210.648438 260.210938 212.375 C 259.78125 215.683594 259.863281 218.976562 260.449219 222.261719 C 260.644531 223.277344 260.949219 224.261719 261.367188 225.207031 C 261.863281 226.242188 262.519531 227.160156 263.335938 227.964844 C 264.0625 228.699219 264.921875 229.214844 265.914062 229.515625 C 266.5 229.699219 267.097656 229.84375 267.699219 229.957031 C 268.515625 230.0625 269.335938 230.113281 270.15625 230.101562 C 272.058594 230.140625 273.949219 230.042969 275.832031 229.808594 C 278.492188 229.476562 281.105469 228.921875 283.671875 228.148438 C 284.457031 227.855469 285.023438 227.324219 285.367188 226.558594 C 285.722656 225.773438 285.746094 224.976562 285.441406 224.171875 C 285.144531 223.386719 284.613281 222.820312 283.855469 222.472656 C 283.066406 222.132812 282.269531 222.109375 281.460938 222.398438 L 279.839844 222.839844 C 276.625 223.589844 273.367188 223.972656 270.066406 223.988281 C 269.375 223.949219 268.683594 223.867188 268.003906 223.738281 L 267.738281 223.621094 C 267.597656 223.507812 267.460938 223.390625 267.335938 223.261719 C 267.214844 223.105469 267.105469 222.949219 266.996094 222.785156 C 266.839844 222.40625 266.707031 222.023438 266.601562 221.628906 C 266.398438 220.679688 266.261719 219.722656 266.1875 218.753906 C 266.113281 217.910156 266.125 217.054688 266.125 216.203125 C 266.214844 214.421875 266.378906 212.648438 266.601562 210.878906 C 266.683594 210.171875 266.773438 209.445312 266.894531 208.738281 C 267.121094 209.164062 267.429688 209.519531 267.820312 209.804688 C 268.207031 210.09375 268.640625 210.28125 269.113281 210.371094 L 275.144531 211.574219 C 277.03125 211.980469 278.9375 212.289062 280.855469 212.492188 C 281.683594 212.613281 282.441406 212.433594 283.128906 211.960938 C 283.816406 211.46875 284.230469 210.804688 284.367188 209.96875 C 284.417969 209.625 284.414062 209.285156 284.351562 208.945312 C 284.289062 208.605469 284.175781 208.285156 284.011719 207.980469 C 283.847656 207.679688 283.636719 207.410156 283.382812 207.175781 C 283.132812 206.941406 282.847656 206.75 282.535156 206.609375 C 282.320312 206.523438 282.101562 206.472656 281.875 206.453125 C 279.957031 206.277344 278.089844 205.917969 276.207031 205.535156 C 274.171875 205.167969 272.15625 204.726562 270.121094 204.320312 C 269.28125 204.167969 268.523438 204.351562 267.847656 204.875 C 268.1875 203.835938 268.554688 202.816406 268.976562 201.808594 C 269.507812 200.601562 270.117188 199.4375 270.808594 198.316406 L 272.011719 196.480469 C 272.054688 196.417969 272.09375 196.355469 272.128906 196.289062 C 275.300781 196.535156 278.480469 196.8125 281.65625 197.207031 C 282.054688 197.265625 282.453125 197.246094 282.847656 197.152344 C 283.238281 197.054688 283.601562 196.886719 283.929688 196.648438 C 284.257812 196.414062 284.53125 196.121094 284.746094 195.777344 C 284.960938 195.433594 285.105469 195.0625 285.175781 194.664062 C 285.222656 194.320312 285.21875 193.976562 285.152344 193.632812 C 285.089844 193.292969 284.972656 192.96875 284.804688 192.664062 C 284.632812 192.359375 284.417969 192.09375 284.160156 191.859375 C 283.902344 191.625 283.613281 191.441406 283.296875 191.304688 C 283.085938 191.21875 282.867188 191.164062 282.644531 191.136719 C 278.300781 190.652344 273.945312 190.292969 269.589844 189.972656 C 268.757812 189.855469 267.992188 190.03125 267.296875 190.503906 C 267.015625 190.707031 266.777344 190.949219 266.578125 191.234375 C 266.378906 191.519531 266.234375 191.828125 266.140625 192.160156 C 266.046875 192.492188 266.007812 192.832031 266.03125 193.179688 C 266.050781 193.523438 266.128906 193.859375 266.261719 194.175781 C 265.53125 195.261719 264.867188 196.382812 264.273438 197.546875 C 263.507812 198.957031 262.847656 200.414062 262.292969 201.917969 Z M 286.714844 255.164062 Z M 286.714844 255.164062 Z M 374.535156 197.566406 C 374.484375 197.964844 374.375 198.351562 374.214844 198.722656 C 373.992188 199.148438 373.722656 199.535156 373.398438 199.886719 C 373.289062 200.007812 373.167969 200.117188 373.058594 200.246094 C 372.824219 200.496094 372.609375 200.761719 372.417969 201.042969 C 372.085938 201.445312 371.730469 201.820312 371.34375 202.164062 C 370.914062 202.585938 370.425781 202.964844 370.015625 203.367188 L 370.59375 202.824219 C 370.023438 203.359375 369.457031 203.871094 368.867188 204.386719 L 367.675781 205.496094 C 365.796875 207.332031 363.882812 209.058594 361.910156 210.757812 L 358.996094 213.265625 C 358.632812 213.566406 358.257812 213.851562 357.867188 214.117188 C 358.527344 214.660156 359.195312 215.164062 359.902344 215.640625 C 361.140625 216.394531 362.40625 217.074219 363.699219 217.699219 L 365.890625 218.734375 C 366.53125 219.03125 367.199219 219.285156 367.832031 219.589844 C 368.449219 219.851562 368.960938 220.246094 369.371094 220.773438 C 369.777344 221.300781 370.035156 221.894531 370.132812 222.554688 C 370.21875 223.859375 369.914062 225.066406 369.21875 226.171875 C 368.660156 227.128906 368.023438 228.027344 367.308594 228.871094 C 366.078125 230.25 364.761719 231.539062 363.359375 232.746094 L 363.9375 232.203125 C 362.558594 233.527344 361.097656 234.753906 359.554688 235.875 C 359.207031 236.125 358.828125 236.34375 358.507812 236.621094 L 358.179688 236.859375 C 359.582031 237.585938 361.046875 238.199219 362.496094 238.832031 C 363.460938 239.246094 364.421875 239.648438 365.394531 240.042969 L 366.199219 240.367188 C 367.4375 240.699219 368.496094 241.332031 369.371094 242.265625 C 369.878906 242.972656 370.175781 243.761719 370.261719 244.625 C 370.347656 245.492188 370.210938 246.320312 369.851562 247.113281 C 369.386719 248.183594 368.753906 249.144531 367.960938 249.996094 C 367.101562 250.894531 366.183594 251.730469 365.210938 252.503906 C 364.347656 253.230469 363.460938 253.898438 362.550781 254.570312 C 361.722656 255.140625 360.855469 255.65625 359.957031 256.113281 C 359.296875 256.496094 358.65625 256.902344 357.96875 257.222656 C 357.730469 257.339844 357.492188 257.441406 357.253906 257.542969 L 357.445312 257.765625 C 358.160156 258.449219 358.929688 259.058594 359.757812 259.601562 C 360.824219 260.191406 361.933594 260.6875 363.082031 261.085938 C 363.953125 261.296875 364.835938 261.453125 365.734375 261.582031 C 366.140625 261.652344 366.515625 261.800781 366.863281 262.019531 C 367.210938 262.238281 367.507812 262.515625 367.746094 262.847656 C 367.988281 263.183594 368.15625 263.550781 368.25 263.953125 C 368.347656 264.351562 368.363281 264.757812 368.300781 265.164062 C 368.230469 265.585938 368.078125 265.980469 367.84375 266.339844 C 368.054688 267.070312 368.003906 267.785156 367.6875 268.476562 C 367.457031 268.976562 367.121094 269.386719 366.675781 269.707031 L 365.980469 270.085938 C 364.9375 270.644531 363.855469 271.140625 362.808594 271.691406 C 361.871094 272.238281 360.894531 272.707031 359.882812 273.097656 C 358.820312 273.480469 357.75 273.894531 356.65625 274.199219 C 354.394531 274.8125 352.074219 275.246094 349.800781 275.785156 C 345.964844 276.628906 342.09375 277.242188 338.183594 277.621094 C 335.25 277.960938 332.28125 278.144531 329.320312 278.21875 C 326.128906 278.3125 322.902344 278.367188 319.746094 278.4375 C 316.378906 278.632812 313.042969 278.371094 309.746094 277.648438 C 306.425781 276.804688 303.234375 275.519531 300.007812 274.390625 C 299.230469 274.046875 298.695312 273.472656 298.402344 272.671875 C 298.34375 272.511719 298.296875 272.347656 298.265625 272.179688 C 297.71875 271.960938 297.269531 271.617188 296.917969 271.140625 C 296.527344 270.589844 296.34375 269.980469 296.359375 269.304688 C 296.113281 269.121094 295.894531 268.90625 295.707031 268.660156 C 295.339844 268.140625 295.15625 267.5625 295.160156 266.925781 L 295.160156 266.78125 C 295.160156 265.585938 295.019531 264.382812 294.949219 263.191406 C 294.917969 262.660156 295.007812 262.152344 295.214844 261.664062 L 289.894531 261.5 C 282.386719 261.296875 274.886719 261.070312 267.378906 260.71875 C 264.023438 260.5625 260.679688 260.289062 257.339844 260.003906 C 254.179688 259.746094 251.023438 259.324219 247.863281 259.023438 C 241.222656 258.371094 234.566406 257.910156 227.929688 257.285156 C 221.292969 256.664062 214.425781 256.101562 207.679688 255.5625 C 203.933594 255.25 200.1875 254.960938 196.449219 254.699219 C 193.265625 254.46875 190.085938 254.359375 186.902344 254.238281 C 184.464844 254.238281 182.019531 254.101562 179.570312 254.109375 C 176.820312 254.109375 174.070312 254.046875 171.320312 254.109375 C 157.363281 254.488281 143.402344 255.027344 129.449219 255.394531 C 126.433594 255.476562 123.417969 255.488281 120.398438 255.617188 C 116.917969 255.761719 113.449219 255.917969 109.976562 256.230469 C 106.5 256.542969 103.171875 256.808594 99.816406 257.425781 C 98.058594 257.746094 96.296875 258.066406 94.546875 258.40625 C 93.152344 258.683594 91.796875 258.996094 90.402344 259.324219 C 89.632812 259.546875 88.863281 259.757812 88.101562 259.996094 C 88.414062 262.234375 88.753906 264.449219 89.238281 266.652344 C 89.375 267.109375 89.523438 267.570312 89.640625 268.046875 C 89.816406 268.554688 89.925781 269.078125 89.960938 269.617188 C 90.019531 270.183594 89.929688 270.722656 89.695312 271.242188 C 89.550781 271.484375 89.394531 271.734375 89.230469 271.984375 L 89.175781 272.039062 C 89.164062 272.273438 89.132812 272.5 89.070312 272.726562 C 89.011719 272.953125 88.925781 273.167969 88.816406 273.371094 C 88.707031 273.578125 88.574219 273.769531 88.421875 273.945312 C 88.269531 274.121094 88.101562 274.277344 87.910156 274.414062 C 87.722656 274.550781 87.523438 274.664062 87.308594 274.757812 C 87.09375 274.847656 86.875 274.914062 86.644531 274.953125 C 86.414062 274.996094 86.183594 275.011719 85.953125 275 C 85.71875 274.988281 85.492188 274.949219 85.269531 274.886719 C 84.808594 275.144531 84.351562 275.410156 83.902344 275.65625 C 81.894531 276.777344 79.878906 277.886719 77.824219 278.925781 C 76.90625 279.414062 75.871094 279.796875 74.910156 280.246094 C 73.945312 280.699219 72.847656 281.164062 71.792969 281.625 C 69.851562 282.34375 67.882812 282.953125 65.878906 283.460938 C 63.652344 284.058594 61.421875 284.617188 59.1875 285.160156 L 59.582031 285.066406 C 57.296875 285.617188 54.996094 286.207031 52.695312 286.546875 C 50.5625 286.789062 48.421875 286.882812 46.277344 286.832031 C 44.011719 286.832031 41.765625 287.023438 39.511719 287.1875 C 37.148438 287.355469 34.78125 287.390625 32.414062 287.296875 C 30.472656 287.253906 28.527344 287.214844 26.59375 287.085938 C 24.671875 287.0625 22.765625 286.855469 20.882812 286.464844 C 19.992188 286.261719 19.128906 285.976562 18.296875 285.601562 C 18.058594 285.480469 17.828125 285.363281 17.609375 285.234375 C 16.972656 284.890625 16.414062 284.441406 15.941406 283.894531 C 15.480469 283.363281 15.210938 282.753906 15.132812 282.054688 C 15.0625 281.386719 15.171875 280.746094 15.464844 280.136719 C 15.703125 279.660156 16.011719 279.226562 16.382812 278.84375 C 16.691406 278.53125 17.023438 278.238281 17.34375 277.925781 C 18.570312 276.796875 19.820312 275.703125 21.011719 274.574219 C 23.15625 272.523438 25.074219 270.277344 26.769531 267.835938 C 26.953125 267.515625 27.125 267.183594 27.28125 266.851562 L 26.601562 266.652344 C 26.042969 266.484375 25.457031 266.328125 24.90625 266.109375 C 24.203125 265.832031 23.53125 265.488281 22.890625 265.082031 C 21.753906 264.335938 20.644531 263.539062 19.507812 262.785156 C 18.371094 262.03125 17.167969 261.519531 15.96875 260.949219 C 15.363281 260.648438 14.777344 260.324219 14.207031 259.96875 C 12.660156 259.050781 10.933594 257.800781 10.695312 255.828125 C 10.660156 255.394531 10.6875 254.964844 10.78125 254.539062 C 10.871094 254.117188 11.023438 253.714844 11.238281 253.335938 C 11.453125 252.957031 11.714844 252.617188 12.03125 252.320312 C 12.347656 252.023438 12.699219 251.777344 13.089844 251.585938 C 13.65625 251.273438 14.234375 250.953125 14.792969 250.601562 C 15.863281 249.929688 16.871094 249.171875 17.820312 248.335938 C 18.554688 247.648438 19.277344 246.941406 19.964844 246.207031 C 20.242188 245.902344 20.523438 245.609375 20.800781 245.289062 C 19.496094 244.539062 18.210938 243.773438 16.941406 242.984375 C 15.792969 242.265625 14.640625 241.570312 13.492188 240.863281 C 12.347656 240.15625 11.074219 239.273438 9.871094 238.457031 C 8.863281 237.804688 7.855469 237.125 6.902344 236.398438 C 6.664062 236.214844 6.414062 236.042969 6.195312 235.847656 C 5.8125 235.519531 5.449219 235.164062 5.113281 234.785156 C 4.925781 234.492188 4.765625 234.1875 4.628906 233.867188 C 4.457031 233.386719 4.390625 232.894531 4.429688 232.386719 C 4.46875 231.878906 4.613281 231.402344 4.855469 230.957031 C 5.355469 230.09375 6.023438 229.394531 6.863281 228.863281 C 8.875 227.5 10.785156 226.003906 12.585938 224.375 C 13.246094 223.753906 13.855469 223.089844 14.417969 222.382812 L 13.503906 221.757812 C 12.941406 221.390625 12.394531 221.011719 11.851562 220.609375 C 10.6875 219.738281 9.558594 218.773438 8.46875 217.855469 C 7.378906 216.9375 6.296875 215.816406 5.277344 214.863281 L 1.914062 211.832031 C 1.601562 211.566406 1.347656 211.25 1.15625 210.886719 C 0.964844 210.519531 0.851562 210.132812 0.8125 209.722656 C 0.773438 209.3125 0.816406 208.910156 0.933594 208.515625 C 1.054688 208.121094 1.242188 207.765625 1.5 207.445312 C 1.714844 207.195312 1.960938 206.988281 2.238281 206.8125 C 2.515625 206.640625 2.8125 206.515625 3.128906 206.433594 C 3.445312 206.351562 3.765625 206.316406 4.089844 206.332031 C 4.417969 206.347656 4.734375 206.414062 5.039062 206.527344 C 5.351562 206.644531 5.628906 206.816406 5.875 207.039062 C 6.992188 208.058594 8.128906 209.058594 9.25 210.078125 C 10.164062 210.933594 11.082031 211.867188 12.054688 212.714844 C 13.027344 213.558594 14.171875 214.550781 15.289062 215.46875 C 16.410156 216.386719 17.296875 216.898438 18.332031 217.570312 C 19.109375 218.003906 19.730469 218.597656 20.199219 219.355469 C 20.664062 220.109375 20.921875 220.933594 20.964844 221.820312 C 20.972656 222.519531 20.855469 223.195312 20.605469 223.851562 C 20.523438 224.125 20.414062 224.386719 20.277344 224.640625 C 20 225.164062 19.695312 225.671875 19.359375 226.164062 C 18.5 227.246094 17.554688 228.246094 16.519531 229.164062 C 15.527344 230.082031 14.527344 231 13.457031 231.773438 L 12.335938 232.609375 L 13.191406 233.1875 L 16.382812 235.316406 C 18.214844 236.46875 20.070312 237.601562 21.945312 238.722656 C 22.863281 239.292969 23.851562 239.878906 24.84375 240.382812 C 25.59375 240.714844 26.296875 241.128906 26.953125 241.625 C 27.273438 241.914062 27.542969 242.246094 27.753906 242.628906 C 27.964844 243.007812 28.109375 243.410156 28.183594 243.839844 C 28.261719 244.265625 28.265625 244.695312 28.195312 245.125 C 28.128906 245.554688 27.992188 245.960938 27.785156 246.34375 C 26.28125 249.03125 23.878906 251.191406 21.632812 253.265625 C 20.796875 254.039062 19.898438 254.738281 18.9375 255.359375 C 19.855469 255.816406 20.816406 256.277344 21.6875 256.820312 C 23.292969 257.800781 24.824219 258.882812 26.390625 259.921875 C 26.980469 260.238281 27.589844 260.5 28.226562 260.703125 C 29.144531 260.96875 30.058594 261.234375 30.929688 261.519531 L 31.628906 261.738281 C 32.019531 261.871094 32.382812 262.0625 32.71875 262.308594 C 33.277344 262.742188 33.679688 263.289062 33.925781 263.949219 C 34.171875 264.609375 34.230469 265.289062 34.09375 265.980469 C 33.617188 268.992188 31.910156 271.65625 30.042969 274.003906 C 28.558594 275.878906 26.949219 277.636719 25.210938 279.273438 C 24.714844 279.734375 24.21875 280.191406 23.714844 280.644531 C 24.769531 280.78125 25.832031 280.84375 26.886719 280.910156 C 28.371094 281 29.859375 281.054688 31.34375 281.101562 L 33.5625 281.15625 C 35.53125 281.15625 37.46875 281.109375 39.429688 280.953125 C 41.390625 280.796875 43.316406 280.671875 45.269531 280.644531 L 48.347656 280.597656 C 49.269531 280.609375 50.183594 280.574219 51.101562 280.488281 C 53.0625 280.246094 54.988281 279.796875 56.914062 279.367188 C 57.882812 279.128906 58.847656 278.890625 59.820312 278.667969 C 63.019531 277.914062 66.171875 276.996094 69.28125 275.914062 C 70.195312 275.585938 71.113281 275.160156 72.03125 274.75 C 72.945312 274.335938 73.632812 274.042969 74.433594 273.683594 C 75.863281 273.050781 77.238281 272.296875 78.613281 271.554688 L 78.476562 271.617188 L 78.613281 271.542969 C 78.335938 271.378906 78.0625 271.214844 77.796875 271.039062 C 76.902344 270.496094 76.078125 269.867188 75.320312 269.148438 C 74.710938 268.527344 74.140625 267.871094 73.605469 267.183594 L 71.261719 264.023438 C 71.0625 263.75 70.914062 263.453125 70.816406 263.132812 C 70.714844 262.8125 70.667969 262.480469 70.675781 262.144531 C 70.679688 261.808594 70.742188 261.480469 70.851562 261.164062 C 70.964844 260.847656 71.125 260.554688 71.328125 260.289062 C 71.535156 260.023438 71.777344 259.796875 72.058594 259.609375 C 72.339844 259.421875 72.640625 259.285156 72.964844 259.195312 C 73.289062 259.105469 73.617188 259.070312 73.953125 259.085938 C 74.289062 259.105469 74.613281 259.175781 74.925781 259.296875 C 75.496094 259.519531 75.964844 259.878906 76.328125 260.371094 C 76.933594 261.199219 77.539062 262.03125 78.164062 262.859375 C 78.167969 262.464844 78.253906 262.082031 78.410156 261.722656 C 78.183594 261.464844 78.003906 261.175781 77.878906 260.859375 C 77.722656 260.46875 77.648438 260.066406 77.652344 259.644531 C 77.65625 259.226562 77.742188 258.824219 77.90625 258.4375 C 78.074219 258.054688 78.304688 257.714844 78.605469 257.421875 C 78.90625 257.132812 79.25 256.910156 79.640625 256.753906 L 82.675781 255.441406 C 84.257812 254.765625 85.871094 254.1875 87.523438 253.707031 C 89.175781 253.230469 90.871094 252.789062 92.546875 252.496094 C 94.226562 252.199219 96.070312 251.804688 97.835938 251.484375 C 99.359375 251.207031 100.898438 250.90625 102.421875 250.730469 C 109.105469 249.980469 115.808594 249.484375 122.535156 249.335938 C 129.777344 249.183594 137.019531 248.984375 144.265625 248.738281 C 150.636719 248.527344 157 248.269531 163.371094 248.105469 C 166.980469 248.003906 170.585938 247.902344 174.207031 247.902344 C 177.828125 247.902344 181.652344 247.902344 185.363281 248.015625 C 186.921875 248.015625 188.472656 248.097656 190.03125 248.160156 C 191.726562 248.226562 193.421875 248.234375 195.117188 248.363281 C 198.585938 248.601562 202.050781 248.855469 205.523438 249.125 C 212.316406 249.675781 219.121094 250.199219 225.90625 250.832031 C 229.40625 251.164062 232.925781 251.492188 236.4375 251.75 C 239.792969 252.015625 243.160156 252.253906 246.523438 252.585938 C 249.886719 252.917969 253.34375 253.273438 256.753906 253.640625 C 260.164062 254.007812 263.722656 254.21875 267.214844 254.441406 C 273.632812 254.863281 280.050781 254.964844 286.523438 255.164062 L 286.6875 255.164062 C 290.011719 255.246094 293.339844 255.339844 296.671875 255.449219 C 299.78125 255.550781 302.878906 255.734375 305.976562 255.835938 L 306.820312 255.835938 C 307.132812 255.585938 307.476562 255.398438 307.855469 255.277344 C 307.546875 255.199219 307.257812 255.078125 306.988281 254.914062 C 306.71875 254.75 306.476562 254.546875 306.269531 254.308594 C 306.058594 254.070312 305.890625 253.804688 305.761719 253.515625 C 305.636719 253.222656 305.554688 252.921875 305.519531 252.605469 C 305.1875 246.707031 305.324219 240.824219 305.929688 234.949219 C 306.152344 232.183594 306.347656 229.429688 306.519531 226.6875 C 306.671875 224.097656 306.765625 221.507812 306.839844 218.917969 C 306.839844 217.78125 306.839844 216.644531 306.839844 215.503906 C 306.839844 211.886719 306.839844 208.269531 307.011719 204.652344 C 307.1875 201.273438 307.507812 197.914062 307.867188 194.554688 C 308.222656 191.195312 308.625 188.035156 309.175781 184.792969 C 309.453125 183.1875 309.828125 181.597656 310.183594 180.003906 C 311 177.046875 312.078125 174.191406 313.421875 171.4375 C 313.589844 171.078125 313.816406 170.761719 314.105469 170.488281 C 314.390625 170.214844 314.71875 170.003906 315.085938 169.855469 C 315.453125 169.707031 315.835938 169.632812 316.234375 169.628906 C 316.628906 169.625 317.011719 169.695312 317.382812 169.839844 L 317.539062 169.902344 C 317.90625 170.082031 318.230469 170.320312 318.507812 170.625 C 318.785156 170.929688 318.996094 171.273438 319.136719 171.660156 C 319.28125 172.042969 319.347656 172.441406 319.335938 172.851562 C 319.324219 173.265625 319.234375 173.65625 319.070312 174.035156 C 318.152344 176.082031 317.234375 178.136719 316.546875 180.269531 C 315.398438 184.863281 314.609375 189.523438 314.183594 194.242188 C 313.679688 198.464844 313.347656 202.695312 313.117188 206.949219 C 312.992188 213.246094 313.117188 219.542969 312.769531 225.832031 C 312.570312 229.066406 312.359375 232.257812 312.109375 235.527344 C 311.882812 238.546875 311.625 241.570312 311.515625 244.589844 C 311.515625 247.066406 311.515625 249.527344 311.707031 252 C 311.738281 252.351562 311.714844 252.699219 311.628906 253.042969 C 311.546875 253.386719 311.40625 253.707031 311.214844 254.003906 C 311.027344 254.300781 310.792969 254.5625 310.515625 254.78125 C 310.238281 255 309.933594 255.167969 309.597656 255.285156 C 309.71875 255.285156 309.847656 255.339844 309.972656 255.386719 C 310.28125 255.507812 310.5625 255.671875 310.816406 255.882812 C 311.023438 256.058594 311.203125 256.253906 311.359375 256.480469 L 311.558594 256.625 C 311.878906 256.890625 312.136719 257.207031 312.332031 257.570312 C 312.527344 257.9375 312.644531 258.328125 312.683594 258.742188 C 312.722656 259.15625 312.679688 259.558594 312.558594 259.957031 C 312.4375 260.355469 312.246094 260.710938 311.980469 261.03125 C 311.464844 261.667969 310.796875 262.035156 309.984375 262.132812 C 309.636719 262.667969 309.285156 263.199219 308.929688 263.714844 C 308.269531 264.632812 307.628906 265.632812 306.882812 266.511719 C 306.054688 267.503906 305.164062 268.441406 304.214844 269.324219 C 305.902344 269.9375 307.601562 270.5625 309.304688 271.160156 C 310.5625 271.507812 311.816406 271.800781 313.109375 272.03125 C 314.203125 272.199219 315.304688 272.292969 316.410156 272.304688 C 319.160156 272.304688 322.003906 272.234375 324.796875 272.148438 C 327.59375 272.066406 330.1875 272.066406 332.894531 271.882812 C 335.597656 271.699219 338.082031 271.425781 340.667969 271.09375 C 343.253906 270.765625 345.65625 270.433594 348.101562 269.882812 C 350 269.414062 351.90625 268.964844 353.816406 268.578125 C 355.75 268.066406 357.621094 267.386719 359.433594 266.539062 L 359.582031 266.457031 L 359.335938 266.367188 C 358.550781 266.042969 357.792969 265.664062 357.0625 265.238281 C 356.242188 264.777344 355.460938 264.265625 354.714844 263.695312 C 353.890625 263.035156 353.136719 262.308594 352.449219 261.511719 C 351.96875 261.007812 351.550781 260.457031 351.203125 259.855469 C 350.699219 259.058594 350.332031 258.203125 350.109375 257.285156 C 349.953125 256.414062 350.066406 255.578125 350.449219 254.78125 C 350.949219 253.792969 351.722656 253.128906 352.777344 252.796875 L 353.164062 252.648438 C 353.988281 252.164062 354.886719 251.871094 355.757812 251.464844 C 356.335938 251.136719 356.914062 250.796875 357.511719 250.472656 L 356.996094 250.75 C 359.042969 249.566406 360.9375 248.175781 362.679688 246.582031 C 362.890625 246.371094 363.09375 246.160156 363.292969 245.9375 C 361.917969 245.378906 360.542969 244.835938 359.179688 244.242188 C 356.976562 243.363281 354.882812 242.28125 352.890625 241 C 352.566406 240.769531 352.261719 240.519531 351.972656 240.246094 C 351.339844 239.722656 350.859375 239.078125 350.542969 238.320312 C 350.429688 237.964844 350.339844 237.609375 350.265625 237.246094 L 350.265625 236.410156 C 350.273438 236.039062 350.355469 235.691406 350.523438 235.363281 C 350.804688 234.722656 351.222656 234.1875 351.78125 233.765625 C 352.230469 233.5 352.664062 233.210938 353.082031 232.894531 C 353.425781 232.582031 353.796875 232.308594 354.191406 232.066406 C 354.621094 231.808594 355.007812 231.496094 355.417969 231.214844 C 355.832031 230.929688 356.335938 230.589844 356.722656 230.292969 C 357.519531 229.6875 358.289062 229.066406 359.050781 228.394531 L 358.664062 228.761719 L 360.683594 226.925781 C 361.511719 226.132812 362.289062 225.292969 363.011719 224.402344 C 362.351562 224.117188 361.699219 223.824219 361.046875 223.484375 C 359.558594 222.765625 358.109375 221.972656 356.703125 221.09375 C 355.113281 220.089844 353.625 218.953125 352.238281 217.679688 C 351.019531 216.550781 349.707031 215.210938 349.992188 213.394531 C 350.191406 212.238281 350.765625 211.320312 351.714844 210.636719 C 352.136719 210.324219 352.582031 210.050781 353.054688 209.820312 C 353.78125 209.421875 354.46875 208.957031 355.109375 208.425781 C 355.894531 207.746094 356.683594 207.058594 357.492188 206.386719 C 358.921875 205.195312 360.296875 203.925781 361.679688 202.714844 L 363.515625 200.972656 C 361.535156 201.054688 359.554688 201.035156 357.574219 200.90625 C 354.367188 200.761719 351.15625 200.355469 347.964844 199.988281 C 344.777344 199.621094 341.410156 199.179688 338.148438 198.683594 C 336.386719 198.417969 334.644531 198.132812 332.894531 197.851562 C 332.058594 197.710938 331.234375 197.539062 330.398438 197.371094 C 329.75 197.253906 329.097656 197.132812 328.457031 196.960938 C 326.441406 196.417969 324.449219 195.820312 322.46875 195.1875 C 320.636719 194.601562 318.804688 193.921875 316.96875 193.277344 C 316.195312 192.933594 315.660156 192.363281 315.363281 191.570312 C 315.058594 190.757812 315.085938 189.953125 315.449219 189.164062 C 315.796875 188.394531 316.363281 187.859375 317.152344 187.558594 C 317.964844 187.269531 318.761719 187.292969 319.554688 187.632812 C 322.074219 188.550781 324.605469 189.394531 327.144531 190.21875 C 328.363281 190.550781 329.574219 190.898438 330.8125 191.136719 C 332.28125 191.414062 333.738281 191.699219 335.203125 191.9375 C 337.953125 192.386719 340.648438 192.855469 343.382812 193.175781 C 348.753906 193.875 354.144531 194.527344 359.554688 194.800781 C 360.800781 194.800781 362.058594 194.800781 363.292969 194.738281 C 364.53125 194.648438 365.753906 194.472656 366.960938 194.203125 C 368.4375 193.792969 369.96875 193.214844 371.546875 193.535156 C 371.804688 193.585938 372.058594 193.660156 372.308594 193.753906 C 372.773438 193.921875 373.183594 194.179688 373.535156 194.53125 C 373.886719 194.882812 374.144531 195.289062 374.316406 195.757812 C 374.53125 196.355469 374.605469 196.96875 374.535156 197.601562 Z M 14.703125 221.765625 Z M 302.574219 261.921875 L 300.972656 261.859375 C 301.265625 262.238281 301.460938 262.664062 301.558594 263.136719 C 301.90625 262.757812 302.246094 262.328125 302.566406 261.921875 Z M 13.785156 210.621094 C 15.683594 210.84375 17.585938 210.957031 19.496094 210.960938 C 22.558594 211.070312 25.660156 211.355469 28.710938 210.859375 C 31.765625 210.363281 35.039062 209.941406 38.210938 209.554688 C 41.382812 209.167969 44.753906 208.546875 47.984375 207.828125 C 49.714844 207.4375 51.402344 206.914062 53.050781 206.257812 C 54.472656 205.691406 55.859375 205.046875 57.269531 204.421875 C 59.453125 203.503906 61.585938 202.414062 63.734375 201.355469 C 64.476562 200.988281 65.226562 200.660156 65.988281 200.328125 C 65.988281 200.640625 66.035156 200.953125 66.050781 201.246094 C 66.445312 207.671875 67.28125 214.027344 67.722656 220.425781 C 68.152344 226.578125 68.371094 232.738281 68.269531 238.90625 L 68.1875 241.816406 L 68.1875 241.652344 C 68.125 243.734375 68.03125 245.808594 68.042969 247.886719 C 68.023438 248.683594 68.050781 249.484375 68.117188 250.28125 C 68.203125 251.59375 68.480469 252.863281 68.949219 254.089844 C 69.089844 254.484375 69.300781 254.835938 69.582031 255.144531 C 69.863281 255.453125 70.195312 255.695312 70.574219 255.867188 C 70.953125 256.042969 71.351562 256.136719 71.769531 256.148438 C 72.183594 256.164062 72.589844 256.09375 72.976562 255.945312 C 73.367188 255.796875 73.710938 255.578125 74.015625 255.289062 C 74.316406 255 74.546875 254.660156 74.714844 254.277344 C 74.878906 253.894531 74.964844 253.492188 74.96875 253.078125 C 74.96875 252.660156 74.894531 252.257812 74.734375 251.871094 C 74.671875 251.738281 74.613281 251.605469 74.570312 251.464844 C 74.238281 249.429688 74.121094 247.382812 74.222656 245.324219 C 74.285156 243.605469 74.332031 241.882812 74.378906 240.164062 C 74.378906 240.429688 74.378906 240.714844 74.378906 240.992188 C 74.574219 233.964844 74.417969 226.949219 73.910156 219.9375 C 73.460938 213.511719 72.625 207.140625 72.222656 200.722656 L 72.003906 196.894531 C 72.375 196.109375 72.40625 195.308594 72.09375 194.5 C 72.027344 194.347656 71.953125 194.207031 71.863281 194.066406 C 71.863281 193.699219 71.863281 193.332031 71.820312 192.976562 C 71.738281 190.742188 71.738281 188.53125 71.738281 186.320312 C 71.847656 184.664062 71.957031 183.023438 72.074219 181.378906 C 72.269531 181.296875 72.449219 181.195312 72.617188 181.066406 C 75.230469 179.121094 77.804688 177.148438 80.59375 175.464844 C 83.207031 174.097656 85.898438 172.90625 88.667969 171.894531 C 91.84375 170.773438 95.003906 169.589844 98.195312 168.488281 L 104.007812 166.507812 C 105.402344 166.019531 106.824219 165.589844 108.234375 165.210938 C 109.644531 164.835938 111.085938 164.292969 112.535156 163.945312 L 118.878906 162.375 L 120.097656 162.070312 L 125.066406 161.0625 C 126.507812 160.777344 127.9375 160.429688 129.382812 160.199219 L 135.296875 159.28125 C 136.664062 159.0625 138.046875 158.8125 139.394531 158.628906 L 145.363281 157.847656 C 146.75 157.65625 148.113281 157.445312 149.535156 157.296875 L 155.421875 156.664062 C 156.851562 156.515625 158.28125 156.324219 159.703125 156.214844 C 163.113281 155.949219 166.503906 155.636719 169.914062 155.433594 L 175.710938 155.074219 C 177.277344 154.984375 178.84375 154.835938 180.402344 154.792969 C 184.136719 154.699219 187.859375 154.570312 191.589844 154.460938 C 195.101562 154.359375 198.613281 154.351562 202.121094 154.296875 C 206.863281 154.214844 211.59375 154.195312 216.332031 154.15625 C 218.230469 154.15625 220.136719 154.15625 222.042969 154.230469 L 229.039062 154.332031 L 239.820312 154.976562 C 241.066406 155.046875 242.324219 155.203125 243.570312 155.316406 L 249.785156 155.902344 C 251.253906 156.039062 252.71875 156.304688 254.179688 156.5 C 255.636719 156.691406 257.15625 156.839844 258.625 157.132812 L 264.785156 158.316406 C 266.261719 158.601562 267.71875 159.003906 269.175781 159.363281 C 271.742188 160.007812 274.265625 160.742188 276.796875 161.476562 C 281.71875 163.035156 286.613281 164.640625 291.464844 166.433594 C 296.808594 168.40625 302.082031 170.621094 307.535156 172.300781 L 308.332031 172.539062 C 308.882812 172.628906 309.417969 172.574219 309.9375 172.378906 C 310.457031 172.179688 310.894531 171.863281 311.242188 171.429688 C 311.59375 171 311.8125 170.507812 311.898438 169.957031 C 311.984375 169.40625 311.925781 168.871094 311.726562 168.351562 C 311.449219 167.597656 310.949219 167.039062 310.230469 166.679688 L 310.128906 166.679688 C 306.710938 165.632812 303.390625 164.347656 300.046875 163.074219 C 297.011719 161.914062 293.96875 160.777344 290.878906 159.703125 C 287.789062 158.628906 284.515625 157.507812 281.296875 156.488281 C 278.078125 155.472656 274.796875 154.441406 271.488281 153.625 L 268.167969 152.800781 C 267.582031 152.660156 266.996094 152.476562 266.398438 152.367188 L 260.46875 151.21875 C 259.191406 150.972656 257.910156 150.808594 256.625 150.632812 L 250.96875 149.863281 C 249.347656 149.632812 247.6875 149.550781 246.054688 149.394531 C 244.421875 149.238281 242.78125 149.035156 241.152344 148.933594 C 237.484375 148.703125 233.742188 148.492188 230.039062 148.273438 C 228.726562 148.199219 227.417969 148.21875 226.105469 148.191406 L 218.773438 148.089844 C 215.710938 148.089844 212.648438 148.089844 209.605469 148.089844 C 203.1875 148.089844 196.769531 148.164062 190.351562 148.355469 L 183.613281 148.558594 C 182.273438 148.558594 180.925781 148.558594 179.597656 148.6875 C 176.105469 148.898438 172.59375 149.042969 169.109375 149.320312 L 163.699219 149.734375 C 162.105469 149.863281 160.492188 149.933594 158.894531 150.109375 L 153.515625 150.6875 C 151.917969 150.863281 150.304688 150.992188 148.71875 151.203125 L 138.515625 152.550781 C 136.8125 152.773438 135.105469 153.09375 133.398438 153.367188 C 131.695312 153.644531 130.164062 153.828125 128.570312 154.148438 L 123.1875 155.242188 C 121.59375 155.5625 119.96875 155.855469 118.382812 156.25 C 115.15625 157.050781 111.902344 157.757812 108.71875 158.710938 L 102.523438 160.546875 C 100.980469 161.007812 99.460938 161.59375 97.9375 162.117188 C 94.921875 163.15625 91.925781 164.246094 88.910156 165.320312 C 87.160156 165.933594 85.417969 166.578125 83.683594 167.257812 C 82.269531 167.808594 80.933594 168.5 79.53125 169.160156 C 77.894531 169.96875 76.320312 170.886719 74.808594 171.914062 C 73.40625 172.832031 72.058594 173.886719 70.699219 174.898438 L 69.03125 176.117188 C 68.917969 176.210938 68.8125 176.308594 68.710938 176.414062 C 68.382812 176.449219 68.070312 176.539062 67.773438 176.679688 C 67.476562 176.820312 67.207031 177.003906 66.96875 177.234375 C 66.734375 177.460938 66.539062 177.722656 66.386719 178.015625 C 66.238281 178.308594 66.136719 178.621094 66.089844 178.945312 C 65.898438 181.132812 65.769531 183.324219 65.621094 185.511719 C 65.503906 187.347656 65.621094 189.265625 65.621094 191.121094 C 65.621094 192.039062 65.621094 192.882812 65.6875 193.765625 C 64.695312 194.1875 63.707031 194.589844 62.714844 195.023438 C 60.882812 195.8125 59.101562 196.777344 57.296875 197.636719 C 55.492188 198.5 53.832031 199.199219 52.089844 199.953125 C 50.378906 200.652344 48.628906 201.246094 46.847656 201.734375 C 42.921875 202.585938 38.96875 203.175781 34.992188 203.679688 C 32.917969 203.953125 30.839844 204.210938 28.777344 204.535156 C 26.992188 204.804688 25.199219 204.929688 23.394531 204.910156 C 21.714844 204.835938 20.046875 204.773438 18.378906 204.726562 C 17.179688 204.726562 15.976562 204.605469 14.785156 204.449219 C 14.382812 204.394531 13.984375 204.417969 13.585938 204.519531 C 13.191406 204.621094 12.832031 204.796875 12.503906 205.039062 C 12.175781 205.28125 11.90625 205.578125 11.695312 205.925781 C 11.484375 206.273438 11.34375 206.648438 11.28125 207.050781 C 11.214844 207.457031 11.226562 207.855469 11.320312 208.253906 C 11.410156 208.652344 11.574219 209.015625 11.808594 209.351562 C 12.042969 209.683594 12.328125 209.964844 12.671875 210.183594 C 13.015625 210.40625 13.386719 210.554688 13.785156 210.628906 Z M 147.480469 105.730469 C 147.375 105.03125 147.320312 104.332031 147.316406 103.625 C 147.300781 103.074219 147.351562 102.523438 147.464844 101.984375 C 147.679688 100.863281 148.191406 99.898438 148.996094 99.089844 C 149.550781 98.5625 150.199219 98.195312 150.9375 97.988281 C 151.453125 97.847656 151.980469 97.785156 152.515625 97.804688 C 153.316406 97.839844 154.085938 98.007812 154.824219 98.3125 C 155.21875 98.464844 155.601562 98.644531 155.972656 98.851562 L 156.886719 99.421875 C 157.300781 99.3125 157.71875 99.257812 158.144531 99.265625 L 158.429688 99.265625 L 158.621094 99.183594 C 159.148438 99.007812 159.683594 98.976562 160.226562 99.089844 C 160.773438 99.203125 161.25 99.445312 161.664062 99.816406 C 162.375 100.488281 162.9375 101.265625 163.359375 102.148438 L 163.683594 102.699219 L 164.121094 103.257812 C 164.242188 102.917969 164.371094 102.570312 164.496094 102.230469 C 164.738281 101.523438 165.019531 100.832031 165.339844 100.15625 C 165.488281 99.878906 165.632812 99.625 165.800781 99.359375 C 165.992188 98.550781 166.238281 97.742188 166.476562 96.960938 C 166.757812 95.933594 167.109375 94.929688 167.53125 93.949219 C 167.972656 92.925781 168.625 92.058594 169.484375 91.351562 C 169.902344 91.023438 170.367188 90.804688 170.882812 90.695312 C 171.398438 90.585938 171.914062 90.59375 172.429688 90.71875 C 172.941406 90.851562 173.410156 91.082031 173.832031 91.40625 C 173.910156 91.46875 173.988281 91.535156 174.058594 91.609375 C 174.519531 92.039062 174.851562 92.546875 175.058594 93.140625 C 175.152344 93.445312 175.222656 93.746094 175.289062 94.058594 C 175.921875 93.992188 176.527344 94.09375 177.105469 94.363281 C 177.683594 94.628906 178.148438 95.027344 178.507812 95.554688 C 178.835938 96.09375 179.050781 96.675781 179.148438 97.300781 C 179.195312 97.523438 179.210938 97.746094 179.195312 97.972656 C 179.207031 99.511719 179.078125 101.042969 178.808594 102.5625 C 178.5625 103.992188 178.285156 105.417969 177.984375 106.847656 C 177.3125 109.980469 176.40625 113.035156 175.480469 116.101562 C 175.308594 116.671875 175.125 117.234375 174.929688 117.792969 C 174.792969 118.261719 174.617188 118.71875 174.410156 119.160156 C 173.914062 120.246094 173.191406 121.148438 172.234375 121.859375 C 172.035156 121.996094 171.820312 122.109375 171.59375 122.199219 C 171.605469 122.449219 171.589844 122.699219 171.539062 122.941406 C 171.375 123.796875 170.929688 124.460938 170.199219 124.933594 C 169.503906 125.40625 168.746094 125.554688 167.925781 125.375 C 165.816406 124.667969 163.664062 124.042969 161.617188 123.183594 C 159.671875 122.4375 157.859375 121.445312 156.179688 120.207031 C 154.5 118.972656 153.015625 117.53125 151.726562 115.890625 C 151.0625 114.957031 150.476562 113.972656 149.964844 112.945312 C 149.347656 111.761719 148.816406 110.535156 148.378906 109.273438 C 147.980469 108.117188 147.679688 106.9375 147.480469 105.730469 Z M 153.503906 103.277344 Z M 195.449219 105.929688 C 195.394531 104.910156 195.355469 103.875 195.375 102.855469 C 195.367188 100.199219 195.578125 97.5625 196.007812 94.941406 C 196.136719 94.152344 196.308594 93.371094 196.519531 92.601562 C 196.75 91.757812 197.078125 90.953125 197.511719 90.195312 C 197.941406 89.539062 198.480469 88.992188 199.125 88.550781 C 199.527344 88.304688 199.960938 88.132812 200.425781 88.039062 C 200.769531 87.957031 201.117188 87.90625 201.472656 87.890625 C 201.828125 87.890625 202.1875 87.945312 202.542969 87.992188 C 202.902344 88.039062 203.40625 88.285156 203.828125 88.449219 C 204.515625 88.867188 205.125 89.375 205.660156 89.976562 C 206.066406 90.429688 206.417969 90.917969 206.726562 91.445312 C 207.683594 93.1875 208.347656 95.039062 208.714844 96.996094 C 209.0625 99.125 209.214844 101.269531 209.171875 103.425781 C 209.171875 103.554688 209.171875 103.671875 209.171875 103.800781 C 210.417969 101.550781 211.722656 99.320312 213.042969 97.117188 C 213.980469 95.445312 215.046875 93.859375 216.242188 92.363281 C 216.398438 92.179688 216.554688 92.003906 216.726562 91.828125 C 217.058594 91.527344 217.40625 91.234375 217.761719 90.910156 C 218.320312 90.546875 218.933594 90.339844 219.597656 90.285156 C 220.246094 90.234375 220.855469 90.359375 221.429688 90.664062 C 221.707031 90.855469 221.945312 91.019531 222.171875 91.214844 C 222.421875 91.421875 222.640625 91.660156 222.824219 91.929688 C 223.5625 93.132812 223.964844 94.4375 224.023438 95.851562 C 224.121094 96.914062 224.007812 97.953125 223.6875 98.972656 C 223.425781 99.679688 223.121094 100.371094 222.769531 101.039062 C 222.421875 101.734375 222.007812 102.40625 221.59375 103.074219 C 220.769531 104.398438 219.890625 105.703125 219.027344 107.003906 C 218.863281 107.261719 218.699219 107.511719 218.523438 107.757812 C 217.9375 108.867188 217.339844 109.960938 216.746094 111.0625 C 215.828125 112.796875 214.910156 114.535156 213.8125 116.203125 C 213.324219 117.003906 212.832031 117.792969 212.316406 118.574219 L 211.933594 119.160156 C 211.933594 119.714844 211.804688 120.234375 211.542969 120.726562 C 211.28125 121.214844 210.917969 121.609375 210.457031 121.914062 C 209.992188 122.25 209.476562 122.472656 208.917969 122.585938 C 208.355469 122.699219 207.796875 122.695312 207.238281 122.566406 C 207.03125 123.117188 206.695312 123.574219 206.226562 123.929688 C 205.753906 124.289062 205.226562 124.492188 204.640625 124.542969 C 204.054688 124.597656 203.5 124.488281 202.976562 124.21875 C 202.449219 123.949219 202.039062 123.5625 201.738281 123.054688 C 200.921875 121.851562 200.113281 120.667969 199.328125 119.453125 C 198.675781 118.46875 198.09375 117.445312 197.585938 116.378906 C 196.90625 115.007812 196.402344 113.574219 196.070312 112.082031 C 195.730469 110.046875 195.515625 107.996094 195.429688 105.929688 Z M 201.800781 94.050781 Z M 201.800781 94.050781 " fill-opacity="1" fill-rule="nonzero"/></g><g fill="#eab8b5" fill-opacity="1"><g transform="translate(100.088684, 182.351645)"><g><path d="M 3.328125 -12.359375 C 3.398438 -12.453125 3.503906 -12.523438 3.640625 -12.578125 C 3.773438 -12.640625 3.921875 -12.671875 4.078125 -12.671875 C 4.410156 -12.671875 4.625 -12.554688 4.71875 -12.328125 C 5.0625 -12.347656 5.4375 -12.363281 5.84375 -12.375 C 6.257812 -12.382812 6.710938 -12.390625 7.203125 -12.390625 C 7.453125 -12.390625 7.640625 -12.359375 7.765625 -12.296875 C 7.890625 -12.222656 7.953125 -12.132812 7.953125 -12.03125 C 7.953125 -11.863281 7.75 -11.757812 7.34375 -11.71875 C 6.9375 -11.664062 6.316406 -11.628906 5.484375 -11.609375 C 5.273438 -11.609375 5.109375 -11.609375 4.984375 -11.609375 C 4.859375 -11.609375 4.765625 -11.601562 4.703125 -11.59375 C 4.671875 -10.738281 4.632812 -9.835938 4.59375 -8.890625 C 4.5625 -7.941406 4.535156 -6.941406 4.515625 -5.890625 C 4.441406 -3.347656 4.367188 -1.453125 4.296875 -0.203125 C 4.210938 0.046875 3.953125 0.171875 3.515625 0.171875 C 3.328125 0.171875 3.171875 0.132812 3.046875 0.0625 C 2.929688 0 2.875 -0.101562 2.875 -0.25 C 2.875 -1.039062 2.878906 -1.800781 2.890625 -2.53125 C 2.898438 -3.269531 2.921875 -4.0625 2.953125 -4.90625 C 2.992188 -5.757812 3.035156 -6.710938 3.078125 -7.765625 C 3.128906 -8.828125 3.191406 -10.078125 3.265625 -11.515625 C 2.578125 -11.484375 1.878906 -11.46875 1.171875 -11.46875 C 0.734375 -11.519531 0.515625 -11.640625 0.515625 -11.828125 C 0.515625 -11.960938 0.65625 -12.0625 0.9375 -12.125 C 1.207031 -12.164062 1.570312 -12.1875 2.03125 -12.1875 L 2.28125 -12.1875 C 2.445312 -12.1875 2.59375 -12.1875 2.71875 -12.1875 C 2.851562 -12.195312 2.976562 -12.207031 3.09375 -12.21875 C 3.25 -12.226562 3.328125 -12.273438 3.328125 -12.359375 Z M 3.328125 -12.359375 "/></g></g></g><g fill="#eab8b5" fill-opacity="1"><g transform="translate(107.994553, 182.351645)"><g><path d="M 0.859375 -14.328125 C 0.859375 -14.453125 0.921875 -14.550781 1.046875 -14.625 C 1.171875 -14.707031 1.328125 -14.75 1.515625 -14.75 C 1.691406 -14.75 1.847656 -14.710938 1.984375 -14.640625 C 2.128906 -14.566406 2.226562 -14.476562 2.28125 -14.375 L 2.765625 -6.0625 C 3.222656 -6.3125 3.722656 -6.4375 4.265625 -6.4375 C 5.148438 -6.4375 5.835938 -6.304688 6.328125 -6.046875 C 6.828125 -5.785156 7.164062 -5.394531 7.34375 -4.875 C 7.53125 -4.351562 7.625 -3.671875 7.625 -2.828125 C 7.625 -1.828125 7.515625 -0.867188 7.296875 0.046875 C 7.253906 0.160156 7.160156 0.253906 7.015625 0.328125 C 6.867188 0.398438 6.703125 0.4375 6.515625 0.4375 C 6.328125 0.4375 6.171875 0.398438 6.046875 0.328125 C 5.929688 0.253906 5.875 0.144531 5.875 0 C 6.09375 -0.957031 6.203125 -1.914062 6.203125 -2.875 C 6.203125 -4.707031 5.566406 -5.648438 4.296875 -5.703125 C 3.703125 -5.722656 3.203125 -5.300781 2.796875 -4.4375 L 2.953125 -0.140625 C 2.867188 0.109375 2.644531 0.234375 2.28125 0.234375 C 2.125 0.234375 1.972656 0.203125 1.828125 0.140625 C 1.679688 0.078125 1.582031 0 1.53125 -0.09375 C 1.476562 -1.519531 1.421875 -2.722656 1.359375 -3.703125 C 1.347656 -3.765625 1.34375 -3.832031 1.34375 -3.90625 C 1.34375 -3.988281 1.34375 -4.082031 1.34375 -4.1875 C 1.226562 -6.257812 1.140625 -8.035156 1.078125 -9.515625 C 0.992188 -11.160156 0.921875 -12.765625 0.859375 -14.328125 Z M 0.859375 -14.328125 "/></g></g></g><g fill="#eab8b5" fill-opacity="1"><g transform="translate(116.601158, 182.351645)"><g><path d="M 5.671875 -7.1875 C 5.671875 -6.882812 5.519531 -6.625 5.21875 -6.40625 C 4.914062 -6.1875 4.53125 -6.019531 4.0625 -5.90625 C 3.820312 -5.863281 3.601562 -5.828125 3.40625 -5.796875 C 3.21875 -5.773438 3.050781 -5.765625 2.90625 -5.765625 C 2.539062 -5.765625 2.175781 -5.785156 1.8125 -5.828125 C 1.8125 -5.453125 1.859375 -5.019531 1.953125 -4.53125 C 2.054688 -4.050781 2.191406 -3.570312 2.359375 -3.09375 C 2.535156 -2.613281 2.738281 -2.179688 2.96875 -1.796875 C 3.3125 -1.191406 3.710938 -0.847656 4.171875 -0.765625 C 4.398438 -0.816406 4.59375 -1.007812 4.75 -1.34375 C 4.90625 -1.613281 5.050781 -1.800781 5.1875 -1.90625 C 5.332031 -2.019531 5.523438 -2.078125 5.765625 -2.078125 C 6.171875 -2.078125 6.375 -1.957031 6.375 -1.71875 C 6.375 -1.664062 6.367188 -1.628906 6.359375 -1.609375 C 6.035156 -1.078125 5.710938 -0.675781 5.390625 -0.40625 C 5.078125 -0.144531 4.691406 -0.015625 4.234375 -0.015625 C 3.867188 -0.015625 3.5 -0.109375 3.125 -0.296875 C 2.75 -0.492188 2.429688 -0.742188 2.171875 -1.046875 C 1.835938 -1.453125 1.535156 -1.925781 1.265625 -2.46875 C 0.992188 -3.007812 0.773438 -3.578125 0.609375 -4.171875 C 0.453125 -4.773438 0.375 -5.34375 0.375 -5.875 C 0.375 -6.78125 0.582031 -7.476562 1 -7.96875 C 1.425781 -8.457031 2 -8.742188 2.71875 -8.828125 L 3.15625 -8.859375 C 3.601562 -8.859375 4.019531 -8.78125 4.40625 -8.625 C 4.789062 -8.476562 5.101562 -8.28125 5.34375 -8.03125 C 5.5625 -7.769531 5.671875 -7.488281 5.671875 -7.1875 Z M 2.28125 -7.5 C 2.132812 -7.269531 2.023438 -6.929688 1.953125 -6.484375 C 2.117188 -6.453125 2.390625 -6.4375 2.765625 -6.4375 C 3.179688 -6.4375 3.519531 -6.492188 3.78125 -6.609375 C 4.039062 -6.734375 4.171875 -6.929688 4.171875 -7.203125 C 4.128906 -7.492188 4.015625 -7.71875 3.828125 -7.875 C 3.648438 -8.03125 3.421875 -8.109375 3.140625 -8.109375 C 2.796875 -8.109375 2.507812 -7.90625 2.28125 -7.5 Z M 2.28125 -7.5 "/></g></g></g></svg>